<?xml version="1.0" encoding="iso-8859-1"?>
<!-- Generator: Adobe Illustrator 16.0.0, SVG Export Plug-In . SVG Version: 6.00 Build 0)  -->
<!DOCTYPE svg PUBLIC "-//W3C//DTD SVG 1.1//EN" "http://www.w3.org/Graphics/SVG/1.1/DTD/svg11.dtd">
<svg xmlns="http://www.w3.org/2000/svg" xmlns:xlink="http://www.w3.org/1999/xlink" version="1.1" id="Capa_1" x="0px" y="0px" width="32px" height="32px" viewBox="0 0 47.979 47.979" style="enable-background:new 0 0 47.979 47.979;" xml:space="preserve">
<g>
	<g id="Zoom_In">
		<g>
			<g>
				<polyline points="43.095,46.46 31.367,34.766 34.695,31.438 46.427,43.132     " fill="#FFFFFF"/>
				<path d="M43.095,47.457c-0.255,0-0.509-0.098-0.704-0.291L30.662,35.471c-0.188-0.187-0.291-0.439-0.293-0.705      c0-0.265,0.105-0.519,0.293-0.705l3.328-3.328c0.389-0.389,1.019-0.392,1.408-0.002L47.13,42.426      c0.39,0.389,0.392,1.02,0.002,1.41s-1.021,0.393-1.41,0.002L34.695,32.846l-1.918,1.918l11.021,10.99      c0.391,0.389,0.391,1.021,0.002,1.41C43.605,47.359,43.35,47.457,43.095,47.457z" fill="#FFFFFF"/>
			</g>
			<g>
				<path d="M46.438,43.143c0.777,0.771,0.666,2.155-0.254,3.073c-0.919,0.916-2.294,1.03-3.076,0.259" fill="#FFFFFF"/>
				<path d="M44.41,47.979c-0.745,0-1.463-0.263-2.004-0.795c-0.392-0.388-0.396-1.019-0.008-1.41      c0.387-0.393,1.019-0.396,1.409-0.008c0.386,0.381,1.151,0.265,1.671-0.256c0.305-0.304,0.479-0.691,0.479-1.066      c0-0.17-0.039-0.41-0.223-0.592c-0.391-0.389-0.394-1.02-0.006-1.41c0.389-0.392,1.02-0.394,1.41-0.006      c0.521,0.518,0.811,1.229,0.812,2.006c0.002,0.899-0.387,1.805-1.063,2.48C46.188,47.621,45.279,47.979,44.41,47.979z" fill="#FFFFFF"/>
			</g>
		</g>
		<path d="M19.86,39.682c-5.301,0-10.284-2.064-14.031-5.814c-7.735-7.733-7.735-20.319,0-28.057C9.576,2.063,14.559,0,19.86,0    c5.3,0,10.283,2.063,14.028,5.81c3.749,3.748,5.813,8.73,5.813,14.03c0,5.301-2.064,10.281-5.813,14.026    C30.143,37.616,25.16,39.682,19.86,39.682z M19.86,2c-4.767,0-9.247,1.855-12.617,5.224c-6.956,6.957-6.956,18.274,0,25.229    c3.37,3.372,7.851,5.229,12.617,5.229s9.246-1.856,12.613-5.229c3.372-3.368,5.229-7.848,5.229-12.612s-1.856-9.246-5.228-12.616    C29.105,3.855,24.627,2,19.86,2z" fill="#FFFFFF"/>
		<path d="M19.861,35.045c-4.062,0-7.88-1.58-10.751-4.45c-2.872-2.874-4.454-6.692-4.454-10.754s1.582-7.88,4.454-10.75    c2.871-2.872,6.688-4.453,10.75-4.453s7.88,1.581,10.751,4.453c2.873,2.87,4.453,6.688,4.453,10.751    c0,4.063-1.582,7.883-4.453,10.753S23.922,35.045,19.861,35.045z M19.86,6.638c-3.527,0-6.843,1.373-9.336,3.867    c-2.494,2.493-3.868,5.809-3.868,9.336c0,3.527,1.374,6.845,3.869,9.341c2.493,2.491,5.809,3.863,9.336,3.863    s6.844-1.372,9.336-3.863c2.494-2.494,3.867-5.812,3.867-9.34c0-3.528-1.373-6.844-3.867-9.337    C26.703,8.011,23.387,6.638,19.86,6.638z" fill="#FFFFFF"/>
		<g>
			<path d="M26.91,18.507h-4.583c-0.552,0-1-0.447-1-1c0-0.553,0.448-1,1-1h4.583c0.552,0,1,0.447,1,1     C27.91,18.06,27.463,18.507,26.91,18.507z" fill="#FFFFFF"/>
			<path d="M17.657,18.507h-4.705c-0.552,0-1-0.447-1-1c0-0.553,0.448-1,1-1h4.705c0.552,0,1,0.447,1,1     C18.657,18.06,18.21,18.507,17.657,18.507z" fill="#FFFFFF"/>
			<path d="M26.91,23.175h-4.583c-0.552,0-1-0.447-1-1c0-0.553,0.448-1,1-1h4.583c0.552,0,1,0.447,1,1     C27.91,22.728,27.463,23.175,26.91,23.175z" fill="#FFFFFF"/>
			<path d="M17.661,23.175h-4.709c-0.552,0-1-0.447-1-1c0-0.553,0.448-1,1-1h4.709c0.552,0,1,0.447,1,1     C18.661,22.728,18.214,23.175,17.661,23.175z" fill="#FFFFFF"/>
			<path d="M17.659,18.506c-0.552,0-1-0.447-1-1v-4.645c0-0.553,0.448-1,1-1c0.552,0,1,0.447,1,1v4.645     C18.659,18.059,18.212,18.506,17.659,18.506z" fill="#FFFFFF"/>
			<path d="M17.659,27.818c-0.552,0-1-0.446-1-1v-4.645c0-0.553,0.448-1,1-1c0.552,0,1,0.447,1,1v4.645     C18.659,27.372,18.212,27.818,17.659,27.818z" fill="#FFFFFF"/>
			<path d="M22.326,18.506c-0.552,0-1-0.447-1-1v-4.645c0-0.553,0.448-1,1-1c0.552,0,1,0.447,1,1v4.645     C23.326,18.059,22.879,18.506,22.326,18.506z" fill="#FFFFFF"/>
			<path d="M22.326,27.818c-0.552,0-1-0.446-1-1v-4.645c0-0.553,0.448-1,1-1c0.552,0,1,0.447,1,1v4.645     C23.326,27.372,22.879,27.818,22.326,27.818z" fill="#FFFFFF"/>
			<path d="M20.003,30.143c-1.834,0-3.326-1.49-3.326-3.322c0-0.553,0.448-1,1-1c0.552,0,1,0.447,1,1     c0,0.729,0.595,1.322,1.326,1.322c0.73,0,1.325-0.594,1.325-1.322c0-0.553,0.448-1,1-1c0.552,0,1,0.447,1,1     C23.328,28.65,21.837,30.143,20.003,30.143z" fill="#FFFFFF"/>
			<path d="M22.328,13.861c-0.552,0-1-0.447-1-1c0-0.729-0.595-1.323-1.325-1.323c-0.731,0-1.326,0.594-1.326,1.323     c0,0.553-0.448,1-1,1c-0.552,0-1-0.447-1-1c0-1.832,1.492-3.323,3.326-3.323c1.833,0,3.325,1.491,3.325,3.323     C23.328,13.414,22.881,13.861,22.328,13.861z" fill="#FFFFFF"/>
			<path d="M12.952,23.175c-1.833,0-3.323-1.492-3.323-3.326c0-1.833,1.491-3.324,3.323-3.324c0.552,0,1,0.447,1,1     c0,0.553-0.448,1-1,1c-0.729,0-1.323,0.594-1.323,1.324c0,0.731,0.594,1.326,1.323,1.326c0.552,0,1,0.447,1,1     C13.952,22.728,13.505,23.175,12.952,23.175z" fill="#FFFFFF"/>
			<path d="M26.766,23.175c-0.552,0-1-0.447-1-1c0-0.553,0.448-1,1-1c0.731,0,1.325-0.595,1.325-1.326     c0-0.73-0.594-1.324-1.325-1.324c-0.552,0-1-0.447-1-1c0-0.553,0.448-1,1-1c1.833,0,3.325,1.491,3.325,3.324     C30.091,21.683,28.599,23.175,26.766,23.175z" fill="#FFFFFF"/>
		</g>
	</g>
	<g>
	</g>
	<g>
	</g>
	<g>
	</g>
	<g>
	</g>
	<g>
	</g>
	<g>
	</g>
	<g>
	</g>
	<g>
	</g>
	<g>
	</g>
	<g>
	</g>
	<g>
	</g>
	<g>
	</g>
	<g>
	</g>
	<g>
	</g>
	<g>
	</g>
</g>
<g>
</g>
<g>
</g>
<g>
</g>
<g>
</g>
<g>
</g>
<g>
</g>
<g>
</g>
<g>
</g>
<g>
</g>
<g>
</g>
<g>
</g>
<g>
</g>
<g>
</g>
<g>
</g>
<g>
</g>
</svg>
